<svg xmlns="http://www.w3.org/2000/svg" width="500" height="500" viewBox="0 0 500 500">
<g>
<path d="M 437.01 106.00 L 436.50 319.50 L 64.00 320.01 L 64.00 106.00 ZM 436.77 366.75 L 436.50 394.50 L 64.00 395.01 L 64.00 339.00 L 437.03 339.00 ZM 300.36 267.05 C305.25,268.21 308.31,268.11 313.27,266.62 C319.80,264.65 323.19,261.90 326.45,255.92 C331.68,246.31 329.86,233.59 322.25,226.53 C317.75,222.36 311.96,220.66 304.12,221.22 C294.99,221.88 289.61,225.31 285.75,232.93 C278.69,246.87 285.84,263.59 300.36,267.05 ZM 218.00 220.79 L 218.00 267.00 L 229.80 267.00 C240.43,267.00 242.11,266.75 246.69,264.47 C262.52,256.58 262.80,231.48 247.14,223.79 C243.26,221.89 240.50,221.46 230.25,221.16 ZM 180.00 161.75 L 180.00 208.00 L 189.00 208.00 L 189.00 199.00 C189.00,190.06 189.02,190.00 191.51,190.00 C194.35,190.00 195.09,190.76 201.74,200.50 C206.42,207.36 206.61,207.51 211.26,207.80 C213.87,207.97 216.00,207.89 216.00,207.62 C216.00,207.35 213.11,202.90 209.58,197.73 L 203.17 188.33 L 206.09 186.61 C209.79,184.42 212.00,180.17 211.99,175.30 C211.95,165.85 207.12,162.79 191.33,162.18 ZM 261.46 201.75 L 259.09 208.00 L 263.41 208.00 C267.70,208.00 267.75,207.97 269.73,202.75 L 271.72 197.50 L 291.30 197.50 L 292.68 201.50 C294.57,206.94 296.07,208.20 300.23,207.82 L 303.76 207.50 L 294.78 184.70 L 285.80 161.90 L 281.26 162.20 L 276.72 162.50 L 270.27 179.00 C266.72,188.07 262.76,198.31 261.46,201.75 ZM 145.66 207.54 C152.81,210.09 159.91,208.78 165.52,203.85 C170.63,199.36 172.00,193.56 172.00,176.32 L 172.00 162.00 L 163.00 162.00 L 163.00 176.85 C163.00,193.43 162.12,197.37 157.94,199.53 C153.46,201.85 149.44,201.37 145.77,198.08 L 142.50 195.17 L 142.18 178.58 L 141.87 162.00 L 132.80 162.00 L 133.18 178.75 C133.59,196.67 134.16,199.03 139.31,203.84 C140.69,205.12 143.54,206.79 145.66,207.54 ZM 183.66 266.54 C190.34,268.93 198.47,267.59 203.17,263.35 C208.18,258.82 209.00,255.18 209.00,237.54 L 209.00 221.00 L 201.00 221.00 L 201.00 235.53 C201.00,251.23 200.06,255.45 195.88,258.37 C191.09,261.73 183.90,259.76 181.12,254.32 C180.44,252.98 180.00,246.06 180.00,236.57 L 180.00 221.00 L 171.00 221.00 L 171.02 236.75 C171.04,249.92 171.35,253.16 172.89,256.50 C175.20,261.51 178.70,264.78 183.66,266.54 ZM 313.70 258.04 C306.69,262.31 297.05,259.53 293.57,252.22 C291.53,247.95 291.56,239.98 293.63,235.64 C295.95,230.79 301.93,227.62 307.58,228.26 C316.08,229.21 320.40,234.52 320.40,244.00 C320.40,250.61 318.15,255.33 313.70,258.04 ZM 105.76 208.00 C116.79,211.33 126.99,204.49 127.00,193.77 C127.00,187.62 123.71,183.98 115.50,181.01 C106.29,177.69 104.06,174.80 107.65,170.83 C109.67,168.60 116.36,168.42 120.00,170.50 C121.38,171.29 122.77,171.95 123.09,171.96 C123.74,172.00 126.00,167.41 126.00,166.06 C126.00,164.46 117.95,162.00 112.73,162.00 C104.06,162.01 98.00,167.36 98.00,175.00 C98.00,181.82 101.88,185.59 112.01,188.60 C114.62,189.37 117.30,190.65 117.95,191.44 C119.86,193.74 118.76,198.11 115.71,200.38 C112.95,202.43 112.85,202.43 108.21,200.62 C101.70,198.09 99.05,198.09 97.34,200.64 C96.00,202.64 96.14,202.92 99.47,204.98 C101.43,206.19 104.26,207.55 105.76,208.00 ZM 104.50 266.40 C110.00,268.39 113.76,268.29 118.73,266.04 C124.15,263.58 126.99,259.01 127.00,252.77 C127.00,246.62 123.71,242.98 115.50,240.01 C106.29,236.69 104.06,233.80 107.65,229.83 C109.67,227.60 116.36,227.42 120.00,229.50 C121.38,230.29 122.77,230.95 123.09,230.96 C123.74,231.00 126.00,226.41 126.00,225.06 C126.00,223.46 117.95,221.00 112.73,221.00 C103.97,221.01 97.99,226.36 98.00,234.20 C98.01,239.79 101.11,243.54 107.67,245.89 C117.10,249.27 118.47,250.22 118.80,253.67 C119.04,256.05 118.49,257.26 116.42,258.88 C113.07,261.52 110.98,261.54 106.00,259.00 C100.98,256.44 99.48,256.48 97.55,259.24 C96.08,261.33 96.13,261.59 98.24,263.21 C99.48,264.17 102.30,265.60 104.50,266.40 ZM 245.03 256.20 C241.35,259.89 241.03,260.00 234.12,260.00 L 227.00 260.00 L 227.00 227.74 L 234.68 228.23 C241.93,228.69 242.54,228.92 245.60,232.26 C251.70,238.92 251.44,249.79 245.03,256.20 ZM 234.00 190.96 L 234.00 208.00 L 242.00 208.00 L 242.00 199.25 C242.00,191.12 242.24,190.11 245.32,185.00 C247.14,181.98 250.96,175.56 253.80,170.75 L 258.96 162.00 L 254.49 162.00 C249.46,162.00 248.59,162.99 241.90,176.22 C240.03,179.92 238.27,182.95 238.00,182.96 C237.73,182.96 235.10,178.45 232.17,172.92 C229.24,167.40 226.25,162.65 225.52,162.37 C224.80,162.09 222.59,162.01 220.61,162.18 L 217.01 162.50 ZM 144.00 228.00 L 144.00 267.00 L 153.00 267.00 L 153.00 228.00 L 166.00 228.00 L 166.00 221.00 L 130.00 221.00 L 130.00 228.00 ZM 266.00 221.00 L 266.00 267.00 L 275.00 267.00 L 275.00 221.00 ZM 199.34 182.89 C198.00,183.50 195.13,184.00 192.95,184.00 L 189.00 184.00 L 189.00 169.00 L 194.05 169.00 C198.07,169.00 199.59,169.50 201.55,171.45 C202.90,172.80 204.00,174.58 204.00,175.41 C204.00,178.22 201.78,181.78 199.34,182.89 ZM 288.00 190.08 C288.00,190.59 285.08,191.00 281.50,191.00 C277.02,191.00 275.00,190.62 275.00,189.77 C275.00,188.32 281.17,170.83 281.54,171.23 C282.03,171.76 288.00,189.18 288.00,190.08 ZM 278.49 371.99 C282.57,376.50 290.00,373.35 290.00,367.11 C290.00,361.86 283.11,359.01 278.52,362.36 C276.12,364.12 276.10,369.35 278.49,371.99 ZM 341.00 367.50 C341.00,372.61 341.32,374.00 342.50,374.00 C343.43,374.00 344.00,373.06 344.00,371.50 C344.00,370.12 344.40,369.00 344.88,369.00 C345.37,369.00 346.51,370.12 347.41,371.50 C348.31,372.88 349.74,374.00 350.59,374.00 C351.87,374.00 351.79,373.52 350.12,371.16 C348.29,368.60 348.25,368.18 349.65,366.78 C350.63,365.80 350.96,364.45 350.54,363.11 C349.99,361.38 349.07,361.00 345.43,361.00 L 341.00 361.00 ZM 187.00 367.50 C187.00,372.61 187.32,374.00 188.50,374.00 C189.43,374.00 190.00,373.06 190.00,371.50 C190.00,370.12 190.46,369.00 191.02,369.00 C191.58,369.00 192.56,370.12 193.18,371.50 C193.82,372.90 195.16,374.00 196.23,374.00 C198.08,374.00 198.08,373.91 196.09,371.39 C194.27,369.07 194.20,368.56 195.47,366.74 C197.75,363.49 195.79,361.00 190.96,361.00 L 187.00 361.00 ZM 392.00 367.44 C392.00,372.60 392.32,374.00 393.50,374.00 C394.43,374.00 395.00,373.06 395.00,371.50 C395.00,368.32 395.54,368.36 398.46,371.75 C401.20,374.93 402.97,374.22 400.63,370.88 C399.51,369.28 399.36,368.27 400.11,367.37 C400.68,366.68 401.01,365.07 400.83,363.81 C400.55,361.87 399.82,361.45 396.25,361.19 L 392.00 360.89 ZM 137.00 367.50 C137.00,372.61 137.32,374.00 138.50,374.00 C139.33,374.00 140.00,373.11 140.00,372.00 C140.00,370.90 140.63,370.00 141.39,370.00 C142.15,370.00 143.80,369.18 145.04,368.17 C146.79,366.75 147.15,365.73 146.63,363.67 C146.03,361.27 145.50,361.00 141.48,361.00 L 137.00 361.00 ZM 151.00 367.45 C151.00,372.61 151.32,374.00 152.50,374.00 C153.32,374.00 154.01,373.21 154.02,372.25 C154.03,371.27 155.46,369.84 157.27,369.00 C159.86,367.80 160.50,366.90 160.50,364.50 C160.50,361.63 160.29,361.49 155.75,361.20 L 151.00 360.89 ZM 86.00 367.50 C86.00,372.61 86.32,374.00 87.50,374.00 C88.51,374.00 89.00,372.99 89.00,370.89 C89.00,368.47 89.35,367.92 90.58,368.39 C91.45,368.73 92.80,369.00 93.58,369.00 C94.43,369.00 95.00,370.01 95.00,371.50 C95.00,373.06 95.57,374.00 96.50,374.00 C97.68,374.00 98.00,372.61 98.00,367.50 C98.00,362.39 97.68,361.00 96.50,361.00 C95.49,361.00 95.00,362.01 95.00,364.07 C95.00,366.82 94.72,367.10 92.25,366.82 C90.09,366.57 89.43,365.91 89.18,363.75 C89.00,362.18 88.25,361.00 87.43,361.00 C86.34,361.00 86.00,362.52 86.00,367.50 ZM 407.76 367.50 C405.72,372.64 405.48,374.00 406.62,374.00 C407.41,374.00 408.32,373.33 408.64,372.50 C409.43,370.44 413.99,370.61 415.56,372.75 C418.02,376.12 418.19,373.06 415.86,367.06 C412.76,359.06 411.07,359.15 407.76,367.50 ZM 121.00 373.03 C121.00,374.56 123.00,374.16 123.64,372.50 C123.96,371.66 125.45,371.00 127.00,371.00 C128.55,371.00 130.04,371.66 130.36,372.50 C130.68,373.33 131.59,374.00 132.38,374.00 C133.52,374.00 133.28,372.64 131.24,367.50 C129.80,363.86 128.05,361.00 127.28,361.00 C126.03,361.00 121.00,370.64 121.00,373.03 ZM 172.12 368.75 C170.48,372.87 170.33,374.00 171.41,374.00 C172.17,374.00 173.05,373.33 173.36,372.50 C174.15,370.44 178.99,370.61 180.56,372.75 C182.93,375.99 182.99,373.40 180.68,367.43 C178.48,361.76 175.84,359.44 174.73,362.20 C174.45,362.92 173.27,365.86 172.12,368.75 ZM 244.12 368.75 C242.48,372.87 242.33,374.00 243.41,374.00 C244.17,374.00 245.05,373.33 245.36,372.50 C246.15,370.44 250.99,370.61 252.56,372.75 C254.93,375.99 254.99,373.40 252.68,367.43 C250.48,361.76 247.84,359.44 246.73,362.20 C246.45,362.92 245.27,365.86 244.12,368.75 ZM 371.12 368.75 C369.48,372.87 369.33,374.00 370.41,374.00 C371.17,374.00 372.05,373.33 372.36,372.50 C373.15,370.44 377.99,370.61 379.56,372.75 C381.98,376.06 381.99,373.33 379.59,367.42 C377.27,361.70 374.81,359.51 373.73,362.20 C373.45,362.92 372.27,365.86 371.12,368.75 ZM 227.00 367.50 C227.00,371.17 227.44,374.00 228.00,374.00 C228.55,374.00 229.02,372.09 229.04,369.75 L 229.09 365.50 L 232.82 369.75 C234.87,372.09 236.88,374.00 237.28,374.00 C237.67,374.00 238.00,371.08 238.00,367.50 C238.00,363.83 237.56,361.00 237.00,361.00 C236.45,361.00 236.00,362.58 236.00,364.50 C236.00,368.87 235.17,368.87 232.00,364.50 C228.18,359.24 227.00,359.95 227.00,367.50 ZM 326.65 372.17 C328.53,374.25 333.01,374.59 334.80,372.80 C336.24,371.36 336.42,361.00 335.00,361.00 C334.45,361.00 334.00,362.97 334.00,365.38 C334.00,370.08 332.29,372.43 329.63,371.41 C328.43,370.95 328.00,369.49 328.00,365.89 C328.00,362.21 327.63,361.00 326.50,361.00 C324.33,361.00 324.45,369.74 326.65,372.17 ZM 103.00 361.00 L 103.00 374.00 L 107.00 374.00 C109.20,374.00 111.00,373.55 111.00,373.00 C111.00,372.45 109.66,372.00 108.03,372.00 C105.80,372.00 105.21,371.63 105.64,370.50 C105.95,369.67 107.10,369.00 108.19,369.00 C109.33,369.00 109.99,368.47 109.75,367.75 C109.52,367.06 108.70,366.50 107.92,366.50 C106.49,366.50 105.04,365.13 105.02,363.75 C105.01,363.34 106.35,363.00 108.00,363.00 C109.65,363.00 111.00,362.55 111.00,362.00 C111.00,361.45 109.20,361.00 107.00,361.00 ZM 214.00 361.00 L 214.00 374.00 L 218.00 374.00 C220.20,374.00 222.00,373.55 222.00,373.00 C222.00,372.45 220.65,372.00 219.00,372.00 C216.00,369.57 216.94,369.00 218.50,369.00 C221.61,369.00 221.81,367.26 218.76,366.82 C217.53,366.64 216.37,365.71 216.19,364.75 C215.93,363.39 216.54,363.00 218.93,363.00 C220.62,363.00 222.00,362.55 222.00,362.00 C222.00,361.45 220.20,361.00 218.00,361.00 ZM 201.67 373.33 C203.12,374.79 207.95,373.96 208.96,372.07 C210.32,369.54 209.46,367.53 206.44,366.16 C203.22,364.69 203.25,362.62 206.50,363.24 C208.18,363.57 209.00,363.27 209.00,362.36 C209.00,360.50 203.58,360.60 202.01,362.49 C200.37,364.46 201.36,366.75 204.47,368.17 C208.18,369.86 207.83,372.42 204.00,371.65 C201.18,371.09 200.16,371.82 201.67,373.33 ZM 294.00 367.50 C294.00,372.61 294.32,374.00 295.50,374.00 C296.43,374.00 297.00,373.06 297.00,371.50 C297.00,369.69 297.54,369.00 298.94,369.00 C300.01,369.00 301.16,368.55 301.50,368.00 C301.85,367.43 301.01,367.00 299.56,367.00 C297.67,367.00 297.00,366.48 297.00,365.00 C297.00,363.55 297.67,363.00 299.44,363.00 C300.78,363.00 302.16,362.55 302.50,362.00 C302.88,361.39 301.34,361.00 298.56,361.00 L 294.00 361.00 ZM 285.95 370.56 C283.46,373.56 279.00,371.55 279.00,367.42 C279.00,362.31 286.25,361.28 286.82,366.31 C287.00,367.86 286.61,369.77 285.95,370.56 ZM 359.00 371.06 C359.00,373.01 359.51,374.00 360.50,374.00 C361.47,374.00 362.00,373.02 362.01,371.25 C362.01,369.74 362.91,367.15 364.00,365.50 C366.34,361.97 366.48,361.00 364.66,361.00 C363.92,361.00 362.76,362.23 362.07,363.74 C360.87,366.38 360.77,366.41 359.41,364.55 C358.64,363.49 358.00,362.25 358.00,361.81 C358.00,361.36 357.28,361.00 356.40,361.00 C355.03,361.00 355.10,361.51 356.90,364.56 C358.06,366.51 359.00,369.44 359.00,371.06 ZM 313.00 373.00 C315.21,374.43 318.58,374.21 319.96,372.55 C321.76,370.38 320.82,367.68 317.74,366.20 C314.14,364.48 314.26,363.00 318.00,363.00 C319.65,363.00 321.00,362.52 321.00,361.94 C321.00,361.33 319.42,361.01 317.25,361.19 C314.05,361.45 313.46,361.88 313.20,364.11 C312.95,366.21 313.49,366.96 315.99,367.99 C319.52,369.46 319.47,371.45 315.91,371.61 C311.86,371.79 311.44,371.99 313.00,373.00 ZM 259.00 367.50 L 259.00 374.00 L 263.00 374.00 C265.20,374.00 267.00,373.55 267.00,373.00 C267.00,372.45 265.88,372.00 264.50,372.00 C262.14,372.00 262.00,371.70 262.00,366.50 C262.00,362.28 261.65,361.00 260.50,361.00 C259.32,361.00 259.00,362.39 259.00,367.50 ZM 421.00 373.12 C421.00,374.86 425.94,373.99 426.96,372.07 C428.63,368.96 428.29,361.00 426.50,361.00 C425.36,361.00 425.00,362.23 425.00,366.09 C425.00,370.35 424.67,371.27 423.00,371.71 C421.90,372.00 421.00,372.63 421.00,373.12 ZM 76.00 368.50 C76.00,371.52 76.45,374.00 77.00,374.00 C77.55,374.00 78.00,371.52 78.00,368.50 C78.00,363.67 78.24,363.00 80.00,363.00 C81.10,363.00 82.00,362.55 82.00,362.00 C82.00,361.45 79.75,361.00 77.00,361.00 C74.25,361.00 72.00,361.45 72.00,362.00 C72.00,362.55 72.90,363.00 74.00,363.00 C75.76,363.00 76.00,363.67 76.00,368.50 ZM 144.00 364.89 C144.00,366.79 141.72,368.38 140.60,367.26 C139.16,365.83 140.09,363.00 142.00,363.00 C143.30,363.00 144.00,363.67 144.00,364.89 ZM 158.00 364.89 C158.00,366.79 155.72,368.38 154.60,367.26 C153.16,365.83 154.09,363.00 156.00,363.00 C157.30,363.00 158.00,363.67 158.00,364.89 ZM 193.81 364.74 C193.31,367.35 190.00,367.64 190.00,365.07 C190.00,363.64 190.64,363.00 192.07,363.00 C193.50,363.00 194.04,363.54 193.81,364.74 ZM 347.81 364.74 C347.31,367.35 344.00,367.64 344.00,365.07 C344.00,363.64 344.64,363.00 346.07,363.00 C347.50,363.00 348.04,363.54 347.81,364.74 ZM 398.81 364.74 C398.31,367.35 395.00,367.64 395.00,365.07 C395.00,363.64 395.64,363.00 397.07,363.00 C398.50,363.00 399.04,363.54 398.81,364.74 ZM 129.00 368.58 C129.00,368.81 128.14,369.00 127.09,369.00 C125.68,369.00 125.32,368.48 125.71,367.00 C126.00,365.90 126.58,365.00 127.01,365.00 C127.68,365.00 129.00,367.37 129.00,368.58 ZM 413.29 367.00 C413.68,368.51 413.32,369.00 411.80,369.00 C410.37,369.00 409.96,368.54 410.39,367.42 C410.73,366.55 411.00,365.65 411.00,365.42 C411.00,364.05 412.85,365.33 413.29,367.00 ZM 177.99 366.97 C178.91,368.70 178.77,369.00 177.04,369.00 C175.92,369.00 175.00,368.35 175.00,367.56 C175.00,365.17 176.83,364.81 177.99,366.97 ZM 249.99 366.97 C250.91,368.70 250.77,369.00 249.04,369.00 C247.92,369.00 247.00,368.35 247.00,367.56 C247.00,365.17 248.83,364.81 249.99,366.97 ZM 376.99 366.97 C377.91,368.70 377.77,369.00 376.04,369.00 C374.92,369.00 374.00,368.35 374.00,367.56 C374.00,365.17 375.83,364.81 376.99,366.97 Z" fill="rgb(0,0,0)"/>
<path d="M 0.00 250.00 L 0.00 0.00 L 250.00 0.00 L 500.00 0.00 L 500.00 250.00 L 500.00 500.00 L 250.00 500.00 L 0.00 500.00 L 0.00 250.00 ZM 436.77 366.75 L 437.03 339.00 L 250.52 339.00 L 64.00 339.00 L 64.00 367.00 L 64.00 395.01 L 250.25 394.75 L 436.50 394.50 L 436.77 366.75 ZM 436.75 212.75 L 437.01 106.00 L 250.50 106.00 L 64.00 106.00 L 64.00 213.00 L 64.00 320.01 L 250.25 319.75 L 436.50 319.50 L 436.75 212.75 ZM 76.00 368.50 C76.00,363.67 75.76,363.00 74.00,363.00 C72.90,363.00 72.00,362.55 72.00,362.00 C72.00,361.45 74.25,361.00 77.00,361.00 C79.75,361.00 82.00,361.45 82.00,362.00 C82.00,362.55 81.10,363.00 80.00,363.00 C78.24,363.00 78.00,363.67 78.00,368.50 C78.00,371.52 77.55,374.00 77.00,374.00 C76.45,374.00 76.00,371.52 76.00,368.50 ZM 86.00 367.50 C86.00,362.52 86.34,361.00 87.43,361.00 C88.25,361.00 89.00,362.18 89.18,363.75 C89.43,365.91 90.09,366.57 92.25,366.82 C94.72,367.10 95.00,366.82 95.00,364.07 C95.00,362.01 95.49,361.00 96.50,361.00 C97.68,361.00 98.00,362.39 98.00,367.50 C98.00,372.61 97.68,374.00 96.50,374.00 C95.57,374.00 95.00,373.06 95.00,371.50 C95.00,370.01 94.43,369.00 93.58,369.00 C92.80,369.00 91.45,368.73 90.58,368.39 C89.35,367.92 89.00,368.47 89.00,370.89 C89.00,372.99 88.51,374.00 87.50,374.00 C86.32,374.00 86.00,372.61 86.00,367.50 ZM 103.00 367.50 L 103.00 361.00 L 107.00 361.00 C109.20,361.00 111.00,361.45 111.00,362.00 C111.00,362.55 109.65,363.00 108.00,363.00 C106.35,363.00 105.01,363.34 105.02,363.75 C105.04,365.13 106.49,366.50 107.92,366.50 C108.70,366.50 109.52,367.06 109.75,367.75 C109.99,368.47 109.33,369.00 108.19,369.00 C107.10,369.00 105.95,369.67 105.64,370.50 C105.21,371.63 105.80,372.00 108.03,372.00 C109.66,372.00 111.00,372.45 111.00,373.00 C111.00,373.55 109.20,374.00 107.00,374.00 L 103.00 374.00 L 103.00 367.50 ZM 121.00 373.03 C121.00,370.64 126.03,361.00 127.28,361.00 C128.05,361.00 129.80,363.86 131.24,367.50 C133.28,372.64 133.52,374.00 132.38,374.00 C131.59,374.00 130.68,373.33 130.36,372.50 C130.04,371.66 128.55,371.00 127.00,371.00 C125.45,371.00 123.96,371.66 123.64,372.50 C123.00,374.16 121.00,374.56 121.00,373.03 ZM 129.00 368.58 C129.00,367.37 127.68,365.00 127.01,365.00 C126.58,365.00 126.00,365.90 125.71,367.00 C125.32,368.48 125.68,369.00 127.09,369.00 C128.14,369.00 129.00,368.81 129.00,368.58 ZM 137.00 367.50 L 137.00 361.00 L 141.48 361.00 C145.50,361.00 146.03,361.27 146.63,363.67 C147.15,365.73 146.79,366.75 145.04,368.17 C143.80,369.18 142.15,370.00 141.39,370.00 C140.63,370.00 140.00,370.90 140.00,372.00 C140.00,373.11 139.33,374.00 138.50,374.00 C137.32,374.00 137.00,372.61 137.00,367.50 ZM 144.00 364.89 C144.00,363.67 143.30,363.00 142.00,363.00 C140.09,363.00 139.16,365.83 140.60,367.26 C141.72,368.38 144.00,366.79 144.00,364.89 ZM 151.00 367.45 L 151.00 360.89 L 155.75 361.20 C160.29,361.49 160.50,361.63 160.50,364.50 C160.50,366.90 159.86,367.80 157.27,369.00 C155.46,369.84 154.03,371.27 154.02,372.25 C154.01,373.21 153.32,374.00 152.50,374.00 C151.32,374.00 151.00,372.61 151.00,367.45 ZM 158.00 364.89 C158.00,363.67 157.30,363.00 156.00,363.00 C154.09,363.00 153.16,365.83 154.60,367.26 C155.72,368.38 158.00,366.79 158.00,364.89 ZM 172.12 368.75 C173.27,365.86 174.45,362.92 174.73,362.20 C175.84,359.44 178.48,361.76 180.68,367.43 C182.99,373.40 182.93,375.99 180.56,372.75 C178.99,370.61 174.15,370.44 173.36,372.50 C173.05,373.33 172.17,374.00 171.41,374.00 C170.33,374.00 170.48,372.87 172.12,368.75 ZM 177.99 366.97 C176.83,364.81 175.00,365.17 175.00,367.56 C175.00,368.35 175.92,369.00 177.04,369.00 C178.77,369.00 178.91,368.70 177.99,366.97 ZM 187.00 367.50 L 187.00 361.00 L 190.96 361.00 C195.79,361.00 197.75,363.49 195.47,366.74 C194.20,368.56 194.27,369.07 196.09,371.39 C198.08,373.91 198.08,374.00 196.23,374.00 C195.16,374.00 193.82,372.90 193.18,371.50 C192.56,370.12 191.58,369.00 191.02,369.00 C190.46,369.00 190.00,370.12 190.00,371.50 C190.00,373.06 189.43,374.00 188.50,374.00 C187.32,374.00 187.00,372.61 187.00,367.50 ZM 193.81 364.74 C194.04,363.54 193.50,363.00 192.07,363.00 C190.64,363.00 190.00,363.64 190.00,365.07 C190.00,367.64 193.31,367.35 193.81,364.74 ZM 201.67 373.33 C200.16,371.82 201.18,371.09 204.00,371.65 C207.83,372.42 208.18,369.86 204.47,368.17 C201.36,366.75 200.37,364.46 202.01,362.49 C203.58,360.60 209.00,360.50 209.00,362.36 C209.00,363.27 208.18,363.57 206.50,363.24 C203.25,362.62 203.22,364.69 206.44,366.16 C209.46,367.53 210.32,369.54 208.96,372.07 C207.95,373.96 203.12,374.79 201.67,373.33 ZM 214.00 367.50 L 214.00 361.00 L 218.00 361.00 C220.20,361.00 222.00,361.45 222.00,362.00 C222.00,362.55 220.62,363.00 218.93,363.00 C216.54,363.00 215.93,363.39 216.19,364.75 C216.37,365.71 217.53,366.64 218.76,366.82 C221.81,367.26 221.61,369.00 218.50,369.00 C216.94,369.00 216.00,369.57 216.00,370.50 C216.00,371.50 217.00,372.00 219.00,372.00 C220.65,372.00 222.00,372.45 222.00,373.00 C222.00,373.55 220.20,374.00 218.00,374.00 L 214.00 374.00 L 214.00 367.50 ZM 227.00 367.50 C227.00,359.95 228.18,359.24 232.00,364.50 C235.17,368.87 236.00,368.87 236.00,364.50 C236.00,362.58 236.45,361.00 237.00,361.00 C237.56,361.00 238.00,363.83 238.00,367.50 C238.00,371.08 237.67,374.00 237.28,374.00 C236.88,374.00 234.87,372.09 232.82,369.75 L 229.09 365.50 L 229.04 369.75 C229.02,372.09 228.55,374.00 228.00,374.00 C227.44,374.00 227.00,371.17 227.00,367.50 ZM 244.12 368.75 C245.27,365.86 246.45,362.92 246.73,362.20 C247.84,359.44 250.48,361.76 252.68,367.43 C254.99,373.40 254.93,375.99 252.56,372.75 C250.99,370.61 246.15,370.44 245.36,372.50 C245.05,373.33 244.17,374.00 243.41,374.00 C242.33,374.00 242.48,372.87 244.12,368.75 ZM 249.99 366.97 C248.83,364.81 247.00,365.17 247.00,367.56 C247.00,368.35 247.92,369.00 249.04,369.00 C250.77,369.00 250.91,368.70 249.99,366.97 ZM 259.00 367.50 C259.00,362.39 259.32,361.00 260.50,361.00 C261.65,361.00 262.00,362.28 262.00,366.50 C262.00,371.70 262.14,372.00 264.50,372.00 C265.88,372.00 267.00,372.45 267.00,373.00 C267.00,373.55 265.20,374.00 263.00,374.00 L 259.00 374.00 L 259.00 367.50 ZM 278.49 371.99 C276.10,369.35 276.12,364.12 278.52,362.36 C283.11,359.01 290.00,361.86 290.00,367.11 C290.00,373.35 282.57,376.50 278.49,371.99 ZM 285.95 370.56 C286.61,369.77 287.00,367.86 286.82,366.31 C286.25,361.28 279.00,362.31 279.00,367.42 C279.00,371.55 283.46,373.56 285.95,370.56 ZM 294.00 367.50 L 294.00 361.00 L 298.56 361.00 C301.34,361.00 302.88,361.39 302.50,362.00 C302.16,362.55 300.78,363.00 299.44,363.00 C297.67,363.00 297.00,363.55 297.00,365.00 C297.00,366.48 297.67,367.00 299.56,367.00 C301.01,367.00 301.85,367.43 301.50,368.00 C301.16,368.55 300.01,369.00 298.94,369.00 C297.54,369.00 297.00,369.69 297.00,371.50 C297.00,373.06 296.43,374.00 295.50,374.00 C294.32,374.00 294.00,372.61 294.00,367.50 ZM 313.00 373.00 C311.44,371.99 311.86,371.79 315.91,371.61 C319.47,371.45 319.52,369.46 315.99,367.99 C313.49,366.96 312.95,366.21 313.20,364.11 C313.46,361.88 314.05,361.45 317.25,361.19 C319.42,361.01 321.00,361.33 321.00,361.94 C321.00,362.52 319.65,363.00 318.00,363.00 C314.26,363.00 314.14,364.48 317.74,366.20 C320.82,367.68 321.76,370.38 319.96,372.55 C318.58,374.21 315.21,374.43 313.00,373.00 ZM 326.65 372.17 C324.45,369.74 324.33,361.00 326.50,361.00 C327.63,361.00 328.00,362.21 328.00,365.89 C328.00,369.49 328.43,370.95 329.63,371.41 C332.29,372.43 334.00,370.08 334.00,365.38 C334.00,362.97 334.45,361.00 335.00,361.00 C336.42,361.00 336.24,371.36 334.80,372.80 C333.01,374.59 328.53,374.25 326.65,372.17 ZM 341.00 367.50 L 341.00 361.00 L 345.43 361.00 C349.07,361.00 349.99,361.38 350.54,363.11 C350.96,364.45 350.63,365.80 349.65,366.78 C348.25,368.18 348.29,368.60 350.12,371.16 C351.79,373.52 351.87,374.00 350.59,374.00 C349.74,374.00 348.31,372.88 347.41,371.50 C346.51,370.12 345.37,369.00 344.88,369.00 C344.40,369.00 344.00,370.12 344.00,371.50 C344.00,373.06 343.43,374.00 342.50,374.00 C341.32,374.00 341.00,372.61 341.00,367.50 ZM 347.81 364.74 C348.04,363.54 347.50,363.00 346.07,363.00 C344.64,363.00 344.00,363.64 344.00,365.07 C344.00,367.64 347.31,367.35 347.81,364.74 ZM 359.00 371.06 C359.00,369.44 358.06,366.51 356.90,364.56 C355.10,361.51 355.03,361.00 356.40,361.00 C357.28,361.00 358.00,361.36 358.00,361.81 C358.00,362.25 358.64,363.49 359.41,364.55 C360.77,366.41 360.87,366.38 362.07,363.74 C362.76,362.23 363.92,361.00 364.66,361.00 C366.48,361.00 366.34,361.97 364.00,365.50 C362.91,367.15 362.01,369.74 362.01,371.25 C362.00,373.02 361.47,374.00 360.50,374.00 C359.51,374.00 359.00,373.01 359.00,371.06 ZM 371.12 368.75 C372.27,365.86 373.45,362.92 373.73,362.20 C374.81,359.51 377.27,361.70 379.59,367.42 C381.99,373.33 381.98,376.06 379.56,372.75 C377.99,370.61 373.15,370.44 372.36,372.50 C372.05,373.33 371.17,374.00 370.41,374.00 C369.33,374.00 369.48,372.87 371.12,368.75 ZM 376.99 366.97 C375.83,364.81 374.00,365.17 374.00,367.56 C374.00,368.35 374.92,369.00 376.04,369.00 C377.77,369.00 377.91,368.70 376.99,366.97 ZM 392.00 367.44 L 392.00 360.89 L 396.25 361.19 C399.82,361.45 400.55,361.87 400.83,363.81 C401.01,365.07 400.68,366.68 400.11,367.37 C399.36,368.27 399.51,369.28 400.63,370.88 C402.97,374.22 401.20,374.93 398.46,371.75 C395.54,368.36 395.00,368.32 395.00,371.50 C395.00,373.06 394.43,374.00 393.50,374.00 C392.32,374.00 392.00,372.60 392.00,367.44 ZM 398.81 364.74 C399.04,363.54 398.50,363.00 397.07,363.00 C395.64,363.00 395.00,363.64 395.00,365.07 C395.00,367.64 398.31,367.35 398.81,364.74 ZM 407.76 367.50 C411.07,359.15 412.76,359.06 415.86,367.06 C418.19,373.06 418.02,376.12 415.56,372.75 C413.99,370.61 409.43,370.44 408.64,372.50 C408.32,373.33 407.41,374.00 406.62,374.00 C405.48,374.00 405.72,372.64 407.76,367.50 ZM 413.29 367.00 C412.85,365.33 411.00,364.05 411.00,365.42 C411.00,365.65 410.73,366.55 410.39,367.42 C409.96,368.54 410.37,369.00 411.80,369.00 C413.32,369.00 413.68,368.51 413.29,367.00 ZM 421.00 373.12 C421.00,372.63 421.90,372.00 423.00,371.71 C424.67,371.27 425.00,370.35 425.00,366.09 C425.00,362.23 425.36,361.00 426.50,361.00 C428.29,361.00 428.63,368.96 426.96,372.07 C425.94,373.99 421.00,374.86 421.00,373.12 ZM 104.50 266.40 C102.30,265.60 99.48,264.17 98.24,263.21 C96.13,261.59 96.08,261.33 97.55,259.24 C99.48,256.48 100.98,256.44 106.00,259.00 C110.98,261.54 113.07,261.52 116.42,258.88 C118.49,257.26 119.04,256.05 118.80,253.67 C118.47,250.22 117.10,249.27 107.67,245.89 C101.11,243.54 98.01,239.79 98.00,234.20 C97.99,226.36 103.97,221.01 112.73,221.00 C117.95,221.00 126.00,223.46 126.00,225.06 C126.00,226.41 123.74,231.00 123.09,230.96 C122.77,230.95 121.38,230.29 120.00,229.50 C116.36,227.42 109.67,227.60 107.65,229.83 C104.06,233.80 106.29,236.69 115.50,240.01 C123.71,242.98 127.00,246.62 127.00,252.77 C126.99,259.01 124.15,263.58 118.73,266.04 C113.76,268.29 110.00,268.39 104.50,266.40 ZM 183.66 266.54 C178.70,264.78 175.20,261.51 172.89,256.50 C171.35,253.16 171.04,249.92 171.02,236.75 L 171.00 221.00 L 175.50 221.00 L 180.00 221.00 L 180.00 236.57 C180.00,246.06 180.44,252.98 181.12,254.32 C183.90,259.76 191.09,261.73 195.88,258.37 C200.06,255.45 201.00,251.23 201.00,235.53 L 201.00 221.00 L 205.00 221.00 L 209.00 221.00 L 209.00 237.54 C209.00,255.18 208.18,258.82 203.17,263.35 C198.47,267.59 190.34,268.93 183.66,266.54 ZM 300.36 267.05 C285.84,263.59 278.69,246.87 285.75,232.93 C289.61,225.31 294.99,221.88 304.12,221.22 C311.96,220.66 317.75,222.36 322.25,226.53 C329.86,233.59 331.68,246.31 326.45,255.92 C323.19,261.90 319.80,264.65 313.27,266.62 C308.31,268.11 305.25,268.21 300.36,267.05 ZM 313.70 258.04 C318.15,255.33 320.40,250.61 320.40,244.00 C320.40,234.52 316.08,229.21 307.58,228.26 C301.93,227.62 295.95,230.79 293.63,235.64 C291.56,239.98 291.53,247.95 293.57,252.22 C297.05,259.53 306.69,262.31 313.70,258.04 ZM 144.00 247.50 L 144.00 228.00 L 137.00 228.00 L 130.00 228.00 L 130.00 224.50 L 130.00 221.00 L 148.00 221.00 L 166.00 221.00 L 166.00 224.50 L 166.00 228.00 L 159.50 228.00 L 153.00 228.00 L 153.00 247.50 L 153.00 267.00 L 148.50 267.00 L 144.00 267.00 L 144.00 247.50 ZM 218.00 243.90 L 218.00 220.79 L 230.25 221.16 C240.50,221.46 243.26,221.89 247.14,223.79 C262.80,231.48 262.52,256.58 246.69,264.47 C242.11,266.75 240.43,267.00 229.80,267.00 L 218.00 267.00 L 218.00 243.90 ZM 245.03 256.20 C251.44,249.79 251.70,238.92 245.60,232.26 C242.54,228.92 241.93,228.69 234.68,228.23 L 227.00 227.74 L 227.00 243.87 L 227.00 260.00 L 234.12 260.00 C241.03,260.00 241.35,259.89 245.03,256.20 ZM 266.00 244.00 L 266.00 221.00 L 270.50 221.00 L 275.00 221.00 L 275.00 244.00 L 275.00 267.00 L 270.50 267.00 L 266.00 267.00 L 266.00 244.00 ZM 105.76 208.00 C104.26,207.55 101.43,206.19 99.47,204.98 C96.14,202.92 96.00,202.64 97.34,200.64 C99.05,198.09 101.70,198.09 108.21,200.62 C112.85,202.43 112.95,202.43 115.71,200.38 C118.76,198.11 119.86,193.74 117.95,191.44 C117.30,190.65 114.62,189.37 112.01,188.60 C101.88,185.59 98.00,181.82 98.00,175.00 C98.00,167.36 104.06,162.01 112.73,162.00 C117.95,162.00 126.00,164.46 126.00,166.06 C126.00,167.41 123.74,172.00 123.09,171.96 C122.77,171.95 121.38,171.29 120.00,170.50 C116.36,168.42 109.67,168.60 107.65,170.83 C104.06,174.80 106.29,177.69 115.50,181.01 C123.71,183.98 127.00,187.62 127.00,193.77 C126.99,204.49 116.79,211.33 105.76,208.00 ZM 145.66 207.54 C143.54,206.79 140.69,205.12 139.31,203.84 C134.16,199.03 133.59,196.67 133.18,178.75 L 132.80 162.00 L 137.33 162.00 L 141.87 162.00 L 142.18 178.58 L 142.50 195.17 L 145.77 198.08 C149.44,201.37 153.46,201.85 157.94,199.53 C162.12,197.37 163.00,193.43 163.00,176.85 L 163.00 162.00 L 167.50 162.00 L 172.00 162.00 L 172.00 176.32 C172.00,193.56 170.63,199.36 165.52,203.85 C159.91,208.78 152.81,210.09 145.66,207.54 ZM 180.00 184.87 L 180.00 161.75 L 191.33 162.18 C207.12,162.79 211.95,165.85 211.99,175.30 C212.00,180.17 209.79,184.42 206.09,186.61 L 203.17 188.33 L 209.58 197.73 C213.11,202.90 216.00,207.35 216.00,207.62 C216.00,207.89 213.87,207.97 211.26,207.80 C206.61,207.51 206.42,207.36 201.74,200.50 C195.09,190.76 194.35,190.00 191.51,190.00 C189.02,190.00 189.00,190.06 189.00,199.00 L 189.00 208.00 L 184.50 208.00 L 180.00 208.00 L 180.00 184.87 ZM 199.34 182.89 C201.78,181.78 204.00,178.22 204.00,175.41 C204.00,174.58 202.90,172.80 201.55,171.45 C199.59,169.50 198.07,169.00 194.05,169.00 L 189.00 169.00 L 189.00 176.50 L 189.00 184.00 L 192.95 184.00 C195.13,184.00 198.00,183.50 199.34,182.89 ZM 234.00 199.48 L 234.00 190.96 L 225.50 176.73 L 217.01 162.50 L 220.61 162.18 C222.59,162.01 224.80,162.09 225.52,162.37 C226.25,162.65 229.24,167.40 232.17,172.92 C235.10,178.45 237.73,182.96 238.00,182.96 C238.27,182.95 240.03,179.92 241.90,176.22 C248.59,162.99 249.46,162.00 254.49,162.00 L 258.96 162.00 L 253.80 170.75 C250.96,175.56 247.14,181.98 245.32,185.00 C242.24,190.11 242.00,191.12 242.00,199.25 L 242.00 208.00 L 238.00 208.00 L 234.00 208.00 L 234.00 199.48 ZM 261.46 201.75 C262.76,198.31 266.72,188.07 270.27,179.00 L 276.72 162.50 L 281.26 162.20 L 285.80 161.90 L 294.78 184.70 L 303.76 207.50 L 300.23 207.82 C296.07,208.20 294.57,206.94 292.68,201.50 L 291.30 197.50 L 281.51 197.50 L 271.72 197.50 L 269.73 202.75 C267.75,207.97 267.70,208.00 263.41,208.00 L 259.09 208.00 L 261.46 201.75 ZM 288.00 190.08 C288.00,189.18 282.03,171.76 281.54,171.23 C281.17,170.83 275.00,188.32 275.00,189.77 C275.00,190.62 277.02,191.00 281.50,191.00 C285.08,191.00 288.00,190.59 288.00,190.08 Z" fill="rgb(254,254,254)"/>
</g>
</svg>